<svg id="Layer_1" data-name="Layer 1" xmlns="http://www.w3.org/2000/svg" xmlns:xlink="http://www.w3.org/1999/xlink" viewBox="0 0 71.6 89.5"><defs><style>.cls-1{fill:url(#Gradeint_Dgraph);}</style><radialGradient id="Gradeint_Dgraph" cx="50" cy="50.05" r="40.52" gradientUnits="userSpaceOnUse"><stop offset="0.01" stop-color="#ff4200"/><stop offset="0.3" stop-color="#f62d35"/><stop offset="0.62" stop-color="#ed1869"/><stop offset="0.87" stop-color="#e70b89"/><stop offset="1" stop-color="#e50695"/></radialGradient></defs><path class="cls-1" d="M71.1,46.9A14.9,14.9,0,0,0,57,57.2L40.9,53.8a11,11,0,0,0,.2-1.8,9.6,9.6,0,0,0-9.6-9.6,3.4,3.4,0,0,0-1,.1L27.2,25.1a10,10,0,1,0-2,.2,6.15,6.15,0,0,0,1.3-.1l3.3,17.4A9.57,9.57,0,0,0,28.3,61L22.6,80.7a5.28,5.28,0,0,0-1.3-.1,7,7,0,1,0,2.1.3L29,61.3a10.07,10.07,0,0,0,2.5.3,9.45,9.45,0,0,0,9.2-7L56.8,58A14.73,14.73,0,1,0,71.1,46.9Z" transform="translate(-14.2 -5.3)"/></svg>