<svg id="Layer_1" data-name="Layer 1" xmlns="http://www.w3.org/2000/svg" xmlns:xlink="http://www.w3.org/1999/xlink" viewBox="0 0 89.8 39.6"><defs><style>.cls-1{fill:url(#Gradeint_Dgraph);}</style><radialGradient id="Gradeint_Dgraph" cx="50" cy="50" r="34.7" gradientUnits="userSpaceOnUse"><stop offset="0.01" stop-color="#ff4200"/><stop offset="0.3" stop-color="#f62d35"/><stop offset="0.62" stop-color="#ed1869"/><stop offset="0.87" stop-color="#e70b89"/><stop offset="1" stop-color="#e50695"/></radialGradient></defs><path class="cls-1" d="M86.9,30.2a8,8,0,0,0-8,8,8.26,8.26,0,0,0,2,5.3L68.6,55.9a8,8,0,0,0-5.9-2.5,8.25,8.25,0,0,0-8.2,7.4L24.1,55.1a8.42,8.42,0,0,0,.4-2.7,9.7,9.7,0,1,0-9.7,9.7,9.83,9.83,0,0,0,9.1-6.2l30.6,5.7a8.2,8.2,0,1,0,16.4,0,8.32,8.32,0,0,0-1.8-5.1L81.4,44.1a8.24,8.24,0,0,0,5.5,2.2,8.05,8.05,0,0,0,0-16.1Z" transform="translate(-5.1 -30.2)"/></svg>