<?xml version="1.0" encoding="utf-8"?>
<!-- Generator: Adobe Illustrator 25.2.3, SVG Export Plug-In . SVG Version: 6.00 Build 0)  -->
<svg version="1.1" id="Layer_1" xmlns="http://www.w3.org/2000/svg" xmlns:xlink="http://www.w3.org/1999/xlink" x="0px" y="0px"
	 viewBox="0 0 89.8 68.2" style="enable-background:new 0 0 89.8 68.2;" xml:space="preserve">
<style type="text/css">
	.st0{fill:url(#SVGID_1_);}
</style>
<radialGradient id="SVGID_1_" cx="50" cy="18.05" r="39.5489" gradientTransform="matrix(1 0 0 -1 -5.1 51.4)" gradientUnits="userSpaceOnUse">
	<stop  offset="1.397000e-02" style="stop-color:#FF4200"/>
	<stop  offset="0.3045" style="stop-color:#F62D35"/>
	<stop  offset="0.6249" style="stop-color:#ED1869"/>
	<stop  offset="0.8668" style="stop-color:#E70B89"/>
	<stop  offset="1" style="stop-color:#E50695"/>
</radialGradient>
<path class="st0" d="M81.8,0c-4.4,0-8,3.6-8,8c0,1.9,0.7,3.8,1.9,5.2L63.3,25.5c-1.6-1.6-3.7-2.5-5.9-2.5c-4.2,0-7.7,3.2-8.1,7.4
	L19,24.7c0.3-0.9,0.4-1.8,0.4-2.7c0-5.4-4.3-9.7-9.7-9.7S0,16.6,0,22s4.3,9.7,9.7,9.7c0.4,0,0.8,0,1.2-0.1l3.2,16.8
	c-5.2,0.8-8.8,5.6-8,10.8c0.8,5.2,5.6,8.8,10.8,8s8.8-5.6,8-10.8c-0.7-4.5-4.5-7.9-9.1-8.1c-0.3,0-0.7,0-1,0.1l-3.2-16.8
	c3.2-0.7,5.9-3,7.1-6l30.5,5.7c0,4.5,3.7,8.1,8.2,8.1c4.5,0,8.2-3.7,8.2-8.2c0-1.9-0.6-3.6-1.8-5.1l12.5-12.3
	c1.5,1.4,3.4,2.2,5.5,2.2c4.4,0,8-3.6,8-8S86.2,0,81.8,0z"/>
</svg>
