<?xml version="1.0" encoding="utf-8"?>
<!-- Generator: Adobe Illustrator 25.2.3, SVG Export Plug-In . SVG Version: 6.00 Build 0)  -->
<svg version="1.1" id="Layer_1" xmlns="http://www.w3.org/2000/svg" xmlns:xlink="http://www.w3.org/1999/xlink" x="0px" y="0px"
	 viewBox="0 0 100 125" style="enable-background:new 0 0 100 125;" xml:space="preserve">
<style type="text/css">
	.st0{fill:url(#SVGID_1_);}
</style>
<radialGradient id="SVGID_1_" cx="50.05" cy="49.95" r="44.7501" fx="93.8106" fy="40.5916" gradientUnits="userSpaceOnUse">
	<stop  offset="1.396659e-02" style="stop-color:#FF4200"/>
	<stop  offset="0.3045" style="stop-color:#F62D35"/>
	<stop  offset="0.6249" style="stop-color:#ED1869"/>
	<stop  offset="0.8668" style="stop-color:#E70B89"/>
	<stop  offset="1" style="stop-color:#E50695"/>
</radialGradient>
<path class="st0" d="M86.9,76.3c-2.8,0-5.3,1.5-6.6,3.8l-14-7.8c1.1-1.9,1.8-4.2,1.8-6.5c0-6.6-4.9-12-11.2-12.8L58,40.9
	c0.1,0,0.2,0,0.2,0c4.1,0,7.4-3.3,7.4-7.4c0-1.8-0.6-3.4-1.6-4.6l11.3-11.2c1.3,1.2,3.1,2,5,2c4,0,7.3-3.3,7.3-7.3s-3.3-7.3-7.3-7.3
	S73,8.4,73,12.4c0,1.8,0.7,3.5,1.8,4.7L63.6,28.3c-1.3-1.4-3.2-2.3-5.3-2.3c-4.1,0-7.4,3.3-7.4,7.4c0,3.8,2.8,6.9,6.5,7.4l-1.1,12
	c-0.3,0-0.7,0-1,0c-5.8,0-10.7,3.8-12.3,9.1L28.8,59c0.1-0.5,0.2-1.1,0.2-1.6c0-4.6-3.8-8.4-8.4-8.4s-8.4,3.8-8.4,8.4
	c0,3.6,2.3,6.7,5.5,7.9l-5,17.2c-0.4-0.1-0.7-0.1-1.1-0.1c-3.4,0-6.2,2.8-6.2,6.2c0,3.4,2.8,6.2,6.2,6.2s6.2-2.8,6.2-6.2
	c0-2.8-1.9-5.2-4.4-5.9l5-17.2c0.7,0.2,1.4,0.3,2.2,0.3c3.8,0,7.1-2.6,8.1-6.1l14.1,2.9c-0.3,1-0.4,2.1-0.4,3.2
	c0,7.1,5.8,12.9,12.9,12.9c4.5,0,8.4-2.3,10.7-5.8l14,7.8c-0.5,1-0.7,2.1-0.7,3.2c0,4.2,3.4,7.7,7.7,7.7c4.2,0,7.7-3.4,7.7-7.7
	C94.6,79.7,91.2,76.3,86.9,76.3z"/>
</svg>
