<?xml version="1.0" encoding="utf-8"?>
<!-- Generator: Adobe Illustrator 25.2.3, SVG Export Plug-In . SVG Version: 6.00 Build 0)  -->
<svg version="1.1" id="Layer_1" xmlns="http://www.w3.org/2000/svg" xmlns:xlink="http://www.w3.org/1999/xlink" x="0px" y="0px"
	 viewBox="0 0 82 91" style="enable-background:new 0 0 82 91;" xml:space="preserve">
<style type="text/css">
	.st0{fill:url(#SVGID_1_);}
</style>
<radialGradient id="SVGID_1_" cx="50" cy="43.3" r="42.99" gradientTransform="matrix(1 0 0 -1 -9 89.4)" gradientUnits="userSpaceOnUse">
	<stop  offset="1.000000e-02" style="stop-color:#FF4200"/>
	<stop  offset="0.3" style="stop-color:#F62D35"/>
	<stop  offset="0.62" style="stop-color:#ED1869"/>
	<stop  offset="0.87" style="stop-color:#E70B89"/>
	<stop  offset="1" style="stop-color:#E50695"/>
</radialGradient>
<path class="st0" d="M67.4,36.4l1.5-15.8h0.3c5.5,0.1,10-4.2,10.2-9.7c0.1-5.5-4.2-10-9.7-10.2c-5.5-0.1-10,4.2-10.2,9.7
	c-0.1,5,3.5,9.3,8.5,10.1l-1.5,15.8c-0.4,0-0.9-0.1-1.3-0.1c-7.4,0-13.9,4.8-16.1,11.9l-18.5-3.9c0.1-0.7,0.2-1.4,0.2-2.1
	c0-6.1-4.9-11-11-11c-6.1,0-11,4.9-11,11c0,4.6,2.9,8.8,7.2,10.3L9.5,74.9c-0.5-0.1-0.9-0.1-1.4-0.1c-4.4,0.1-7.9,3.7-7.9,8.1
	c0.1,4.4,3.7,7.9,8.1,7.9s7.9-3.7,7.9-8.1c-0.1-3.5-2.4-6.6-5.8-7.6l6.5-22.5c0.9,0.2,1.9,0.4,2.9,0.4c4.9,0,9.2-3.3,10.6-8
	l18.4,3.8c-0.3,1.3-0.5,2.7-0.5,4.1c0,9.3,7.6,16.9,16.9,16.9C74.3,70,81.8,62.7,82,53.6c0-0.1,0-0.3,0-0.4
	C82,44.7,75.8,37.5,67.4,36.4z"/>
</svg>
