<svg id="Layer_1" data-name="Layer 1" xmlns="http://www.w3.org/2000/svg" xmlns:xlink="http://www.w3.org/1999/xlink" viewBox="0 0 89.9 65.6"><defs><style>.cls-1{fill:url(#Gradeint_Dgraph);}</style><radialGradient id="Gradeint_Dgraph" cx="50.05" cy="50" r="39.35" gradientUnits="userSpaceOnUse"><stop offset="0.01" stop-color="#ff4200"/><stop offset="0.3" stop-color="#f62d35"/><stop offset="0.62" stop-color="#ed1869"/><stop offset="0.87" stop-color="#e70b89"/><stop offset="1" stop-color="#e50695"/></radialGradient></defs><path class="cls-1" d="M76.4,22.7a18.43,18.43,0,0,0-17.6,13L38.6,31.5a16.41,16.41,0,0,0,.2-2.3A12,12,0,1,0,22.7,40.5L15.6,65.2A10,10,0,0,0,14,65a8.95,8.95,0,1,0,2.6.4l7.1-24.6a11,11,0,0,0,3.1.4,12.15,12.15,0,0,0,11.6-8.7l20.2,4.2a16.84,16.84,0,0,0-.6,4.5A18.5,18.5,0,1,0,76.4,22.7Z" transform="translate(-5.1 -17.2)"/></svg>